<?xml version="1.0" standalone="no"?>
<!DOCTYPE svg PUBLIC "-//W3C//DTD SVG 20010904//EN"
 "http://www.w3.org/TR/2001/REC-SVG-20010904/DTD/svg10.dtd">
<svg version="1.0" xmlns="http://www.w3.org/2000/svg"
 width="604.000000pt" height="604.000000pt" viewBox="0 0 604.000000 604.000000"
 preserveAspectRatio="xMidYMid meet">
<metadata>
Created by potrace 1.14, written by Peter Selinger 2001-2017
</metadata>
<g transform="translate(0.000000,604.000000) scale(0.100000,-0.100000)"
fill="#000000" stroke="none">
<path d="M2818 6036 c-1 -2 -34 -6 -73 -10 -38 -3 -83 -8 -100 -11 -49 -8 -88
-14 -130 -20 -22 -4 -48 -8 -57 -11 -10 -3 -30 -7 -45 -10 -16 -3 -36 -7 -45
-10 -9 -3 -25 -7 -36 -9 -40 -7 -171 -48 -282 -87 -131 -46 -438 -192 -505
-240 -5 -4 -62 -42 -125 -84 -63 -42 -117 -80 -120 -83 -3 -4 -14 -14 -26 -22
-54 -37 -129 -105 -249 -224 -151 -151 -169 -171 -247 -274 -32 -42 -63 -82
-68 -88 -27 -32 -150 -229 -150 -240 0 -7 -3 -13 -7 -13 -5 0 -13 -10 -19 -23
-5 -12 -26 -53 -46 -92 -56 -112 -88 -183 -88 -197 0 -8 -5 -19 -12 -26 -6 -6
-13 -17 -14 -24 -1 -7 -16 -51 -32 -98 -28 -77 -69 -209 -77 -249 -21 -95 -54
-264 -54 -269 1 -4 0 -9 -1 -12 -1 -3 -3 -16 -5 -30 -27 -216 -27 -542 0 -763
7 -57 38 -214 57 -287 10 -41 21 -84 23 -95 20 -88 100 -303 163 -438 28 -59
52 -111 52 -115 1 -4 7 -14 15 -22 7 -8 26 -39 41 -68 46 -84 67 -118 109
-179 57 -84 155 -212 192 -251 35 -38 36 -53 8 -179 -8 -40 -18 -96 -21 -125
-3 -29 -8 -64 -11 -78 -8 -38 -9 -251 -1 -285 4 -16 10 -43 13 -60 3 -16 17
-73 32 -125 14 -52 26 -99 27 -105 1 -5 10 -34 20 -62 14 -42 22 -53 39 -54
12 0 31 -2 42 -5 11 -2 40 -6 65 -8 25 -3 65 -7 90 -11 25 -3 61 -8 80 -10 44
-4 132 -14 185 -21 22 -3 60 -7 85 -9 25 -2 65 -6 90 -10 25 -3 65 -7 90 -9
68 -6 162 -17 190 -21 14 -2 54 -7 90 -10 36 -3 85 -8 110 -11 25 -3 70 -7
100 -9 30 -3 75 -7 100 -10 71 -9 129 -14 205 -20 39 -3 86 -7 105 -10 32 -3
90 -8 245 -20 57 -5 119 -9 280 -20 39 -3 174 -7 300 -10 127 -2 307 -7 400
-10 94 -3 239 -7 323 -10 84 -2 156 -7 161 -10 5 -3 12 -1 16 4 3 6 15 7 28 3
22 -8 488 -6 627 2 301 18 452 50 511 109 16 15 34 47 41 70 14 49 17 309 5
437 -5 47 -10 104 -12 127 -1 23 -5 57 -9 75 -3 18 -8 56 -12 83 -3 28 -8 59
-10 70 -2 11 -7 40 -10 65 -3 25 -7 56 -10 70 -2 14 -7 41 -10 60 -3 19 -7 46
-10 60 -2 14 -7 39 -9 55 -3 17 -7 41 -10 55 -2 14 -14 73 -25 132 l-21 106
38 59 c44 68 80 134 125 223 18 36 35 67 38 70 3 3 13 23 22 45 82 201 111
278 124 325 9 30 18 62 21 70 7 18 7 17 28 105 10 39 19 79 21 90 2 11 8 38
13 60 5 22 12 64 15 93 3 29 7 56 10 60 23 37 28 712 6 712 -3 0 -6 21 -8 48
-1 26 -9 83 -18 127 -8 44 -18 91 -20 105 -11 59 -66 251 -90 315 -14 39 -29
82 -34 96 -14 46 -142 313 -193 404 -57 101 -210 319 -275 393 -151 172 -148
169 -259 269 -107 99 -221 190 -323 258 -41 28 -76 53 -78 58 -2 4 -7 7 -12 7
-5 0 -43 21 -86 46 -92 54 -293 152 -384 187 -36 13 -74 28 -85 32 -11 4 -24
9 -30 10 -15 4 -148 46 -165 52 -19 8 -28 10 -67 16 -17 3 -36 8 -41 11 -5 3
-27 8 -47 12 -21 3 -47 8 -59 10 -11 3 -34 7 -51 9 -16 3 -41 7 -55 10 -14 3
-45 8 -70 10 -25 3 -61 8 -80 11 -38 6 -486 14 -492 10z"/>
</g>
</svg>
